<?xml version="1.0" encoding="utf-8"?>
<!-- Generator: Adobe Illustrator 26.2.1, SVG Export Plug-In . SVG Version: 6.00 Build 0)  -->
<svg version="1.1" id="Layer_1" xmlns:bx="https://boxy-svg.com"
	 xmlns="http://www.w3.org/2000/svg" xmlns:xlink="http://www.w3.org/1999/xlink" x="0px" y="0px" viewBox="0 0 959 169"
	 style="enable-background:new 0 0 959 169;" xml:space="preserve">
<style type="text/css">
	.st0{fill:#CCCCCC;}
	.st1{fill:url(#SVGID_1_);}
	.st2{fill:url(#SVGID_00000019675822635620064040000012240438449308735644_);}
	.st3{fill:#929497;}
	.st4{fill:none;stroke:#929497;stroke-width:0.3776;stroke-miterlimit:10;}
	.st5{fill:url(#SVGID_00000005248910111515212560000002843259907110929060_);}
	.st6{fill:#EE4036;}
	.st7{fill:none;stroke:#EE4036;stroke-width:0.3776;stroke-miterlimit:10;}
	.st8{fill:#0000FF;}

		.st9{fill:none;stroke:url(#SVGID_00000151539217008035510630000007085503790799152816_);stroke-width:0.3776;stroke-miterlimit:10;}
	.st10{fill:#FFFFFF;}
</style>
<g>
	<path class="st0" d="M439.4,141.4l-9.7-46l-0.1-0.3c0-0.4,0.2-0.6,0.7-0.6h6.9c0.5,0,0.8,0.2,0.9,0.7l5.6,32.7
		c0,0.1,0.1,0.2,0.2,0.2c0.1,0,0.2-0.1,0.2-0.2l5.5-32.7c0-0.5,0.3-0.7,0.9-0.7h6.7c0.6,0,0.8,0.3,0.7,0.9l-9.8,46
		c-0.1,0.5-0.4,0.7-0.9,0.7h-6.9C439.8,142.2,439.5,141.9,439.4,141.4z"/>
	<path class="st0" d="M479,141.4l-1.3-7.1c0-0.2-0.1-0.3-0.4-0.3h-9.9c-0.3,0-0.4,0.1-0.4,0.3l-1.3,7.1c0,0.5-0.3,0.7-0.9,0.7h-6.2
		c-0.6,0-0.9-0.3-0.7-0.9l10.1-46c0.1-0.5,0.4-0.7,0.9-0.7h7.2c0.5,0,0.8,0.2,0.9,0.7l10.1,46v0.3c0,0.4-0.2,0.6-0.7,0.6h-6.3
		C479.3,142.2,479,141.9,479,141.4z M468.5,127.7h7.5c0.3,0,0.4-0.1,0.3-0.3l-3.9-21.5c0-0.1-0.1-0.2-0.2-0.2
		c-0.1,0-0.2,0.1-0.2,0.2l-3.9,21.5C468.1,127.6,468.2,127.7,468.5,127.7z"/>
	<path class="st0" d="M493.4,141.9c-0.2-0.2-0.2-0.4-0.2-0.6v-46c0-0.2,0.1-0.4,0.2-0.6c0.2-0.2,0.4-0.2,0.6-0.2h6.3
		c0.2,0,0.4,0.1,0.6,0.2c0.2,0.2,0.2,0.4,0.2,0.6V135c0,0.2,0.1,0.3,0.3,0.3H516c0.2,0,0.4,0.1,0.6,0.2c0.2,0.2,0.2,0.4,0.2,0.6v5.2
		c0,0.2-0.1,0.4-0.2,0.6c-0.2,0.2-0.4,0.2-0.6,0.2h-22.1C493.7,142.2,493.5,142.1,493.4,141.9z"/>
	<path class="st0" d="M523.1,141.9c-0.2-0.2-0.2-0.4-0.2-0.6v-46c0-0.2,0.1-0.4,0.2-0.6c0.2-0.2,0.4-0.2,0.6-0.2h6.3
		c0.2,0,0.4,0.1,0.6,0.2c0.2,0.2,0.2,0.4,0.2,0.6v46c0,0.2-0.1,0.4-0.2,0.6c-0.2,0.2-0.4,0.2-0.6,0.2h-6.3
		C523.5,142.2,523.3,142.1,523.1,141.9z"/>
	<path class="st0" d="M539.9,141.9c-0.2-0.2-0.2-0.4-0.2-0.6v-46c0-0.2,0.1-0.4,0.2-0.6c0.2-0.2,0.4-0.2,0.6-0.2h11.6
		c3.9,0,7,1.2,9.3,3.5c2.3,2.4,3.5,5.5,3.5,9.5v21.6c0,3.9-1.2,7.1-3.5,9.5c-2.3,2.4-5.5,3.5-9.3,3.5h-11.6
		C540.3,142.2,540.1,142.1,539.9,141.9z M547.9,135.4l4.1-0.1c1.5,0,2.7-0.6,3.6-1.8c0.9-1.2,1.4-2.8,1.5-4.8V108
		c0-2-0.5-3.7-1.4-4.9c-0.9-1.2-2.2-1.8-3.8-1.8h-4c-0.2,0-0.3,0.1-0.3,0.3V135C547.6,135.2,547.7,135.4,547.9,135.4z"/>
	<path class="st0" d="M590.4,141.4l-1.3-7.1c0-0.2-0.1-0.3-0.4-0.3h-9.9c-0.3,0-0.4,0.1-0.4,0.3l-1.3,7.1c0,0.5-0.3,0.7-0.9,0.7H570
		c-0.6,0-0.9-0.3-0.7-0.9l10.1-46c0.1-0.5,0.4-0.7,0.9-0.7h7.2c0.5,0,0.8,0.2,0.9,0.7l10.1,46v0.3c0,0.4-0.2,0.6-0.7,0.6h-6.3
		C590.8,142.2,590.5,141.9,590.4,141.4z M580,127.7h7.5c0.3,0,0.4-0.1,0.3-0.3l-3.9-21.5c0-0.1-0.1-0.2-0.2-0.2
		c-0.1,0-0.2,0.1-0.2,0.2l-3.9,21.5C579.6,127.6,579.7,127.7,580,127.7z"/>
	<path class="st0" d="M625.6,94.8c0.2,0.2,0.2,0.4,0.2,0.6v5.2c0,0.2-0.1,0.4-0.2,0.6c-0.2,0.2-0.4,0.2-0.6,0.2h-8.6
		c-0.2,0-0.3,0.1-0.3,0.3v39.6c0,0.2-0.1,0.4-0.2,0.6c-0.2,0.2-0.4,0.2-0.6,0.2h-6.3c-0.2,0-0.4-0.1-0.6-0.2
		c-0.2-0.2-0.2-0.4-0.2-0.6v-39.6c0-0.2-0.1-0.3-0.3-0.3h-8.2c-0.2,0-0.4-0.1-0.6-0.2c-0.2-0.2-0.2-0.4-0.2-0.6v-5.2
		c0-0.2,0.1-0.4,0.2-0.6c0.2-0.2,0.4-0.2,0.6-0.2H625C625.2,94.6,625.4,94.6,625.6,94.8z"/>
	<path class="st0" d="M634,139.2c-2.4-2.4-3.6-5.5-3.6-9.4v-22.8c0-3.9,1.2-7,3.6-9.4c2.4-2.4,5.5-3.5,9.4-3.5c3.9,0,7,1.2,9.5,3.5
		c2.4,2.4,3.6,5.5,3.6,9.4v22.8c0,3.9-1.2,7-3.6,9.4c-2.4,2.4-5.6,3.5-9.5,3.5C639.5,142.7,636.4,141.5,634,139.2z M647.1,134.3
		c1-1.1,1.4-2.5,1.4-4.2v-23.5c0-1.7-0.5-3.1-1.4-4.2c-1-1.1-2.2-1.6-3.7-1.6s-2.8,0.5-3.7,1.6c-0.9,1.1-1.4,2.5-1.4,4.2v23.5
		c0,1.7,0.5,3.1,1.4,4.2c0.9,1.1,2.2,1.6,3.7,1.6S646.2,135.4,647.1,134.3z"/>
	<path class="st0" d="M682.5,141.5l-5.8-19.5c-0.1-0.2-0.2-0.3-0.3-0.3h-3.6c-0.2,0-0.3,0.1-0.3,0.3v19.3c0,0.2-0.1,0.4-0.2,0.6
		c-0.2,0.2-0.4,0.2-0.6,0.2h-6.3c-0.2,0-0.4-0.1-0.6-0.2c-0.2-0.2-0.2-0.4-0.2-0.6v-46c0-0.2,0.1-0.4,0.2-0.6
		c0.2-0.2,0.4-0.2,0.6-0.2h12.8c2.4,0,4.5,0.6,6.4,1.7s3.3,2.8,4.3,4.9c1,2.1,1.5,4.5,1.5,7.2c0,2.8-0.5,5.2-1.6,7.3
		c-1.1,2-2.6,3.6-4.6,4.6c-0.2,0-0.2,0.2-0.2,0.4l6.7,20.5c0,0.1,0.1,0.2,0.1,0.3c0,0.4-0.2,0.6-0.7,0.6h-6.5
		C682.9,142.2,682.6,141.9,682.5,141.5z M672.4,101.7v13.5c0,0.2,0.1,0.3,0.3,0.3h4.1c1.6,0,3-0.6,4-1.9c1-1.3,1.5-3,1.5-5.2
		s-0.5-3.9-1.5-5.2c-1-1.3-2.3-1.9-4-1.9h-4.1C672.6,101.4,672.4,101.5,672.4,101.7z"/>
</g>
<g>

		<linearGradient id="SVGID_1_" gradientUnits="userSpaceOnUse" x1="94.6037" y1="-106.5835" x2="66.8521" y2="-69.7966" gradientTransform="matrix(1 0 0 1 -12.82 195.17)">
		<stop  offset="0" style="stop-color:#3FA9F5"/>
		<stop  offset="1" style="stop-color:#0000FF"/>
	</linearGradient>
	<path class="st1" d="M72.8,94.7l7.8-2.6L43.4,70.5c0,0-8.2,33.1,16.2,57.5c10,10,20.8,15.4,31,18.1c-2.2-2.8-10.2-13.1-14.8-24
		C70.3,109.2,72.8,94.7,72.8,94.7z"/>

		<linearGradient id="SVGID_00000084489386153657239280000011328811416224652974_" gradientUnits="userSpaceOnUse" x1="-1019.4236" y1="-270.1233" x2="-1047.1412" y2="-233.2911" gradientTransform="matrix(-0.57 0.82 -0.82 -0.57 -691.3201 735.84)">
		<stop  offset="0" style="stop-color:#F1F1F2"/>
		<stop  offset="1" style="stop-color:#929497"/>
	</linearGradient>
	<path style="fill:url(#SVGID_00000084489386153657239280000011328811416224652974_);" d="M111.7,44.4l-2.3,7.9l39-18.1
		c0,0-22.5-25.7-56.3-19.7c-13.9,2.5-24.6,8.2-32.6,15c3.6-0.2,16.6-0.8,28.2,1.6C101.3,34.1,111.7,44.4,111.7,44.4z"/>
	<path class="st3" d="M43.7,57.2c0.6-1.3,1.4-2.6,2.2-3.7c15.9-22.8,61.4-13.2,65.8-9.4c0,0-10.5-9.9-24-12.8
		c-11.6-2.5-24.6-1.9-28.2-1.6c-4.3,3.7-8.1,7.8-11.3,12.5c-3.7,5.2-6.5,10.9-8.5,17c-4.1,13.2-2.3,25.7-2.3,25.7
		S37.7,68.6,43.7,57.2z"/>
	<path class="st4" d="M147.8,34.1l-37.8,17.5l2-7.1l0.1-0.2l-0.2-0.2c-2.9-2.5-21.6-7.2-39.1-5c-5.8,0.7-11,2.2-15.4,4.2
		c-5,2.4-9.1,5.7-11.9,9.8c-0.8,1.2-1.6,2.5-2.2,3.8c-3.8,7.2-5.3,16.3-5.9,22.1c-0.1-4.9,0.3-12.4,2.6-20c1.9-6,4.8-11.7,8.4-16.9
		C55.7,32,69,19,92.2,14.9c7.6-1.4,15.4-1.2,22.9,0.5c6.2,1.4,12.2,3.8,17.7,7C138.3,25.6,143.4,29.5,147.8,34.1 M148.4,34.2
		c0,0-22.5-25.7-56.3-19.7c-22,3.9-35.8,15.9-43.8,27.4c-3.7,5.2-6.5,10.9-8.5,17c-4.1,13.2-2.3,25.7-2.3,25.7s0.2-16.2,6.2-27.6
		c0.6-1.3,1.4-2.6,2.2-3.7c15.9-22.8,61.4-12.8,65.8-9l-2.3,7.9L148.4,34.2z"/>

		<linearGradient id="SVGID_00000128487280320245061770000009425318216158946476_" gradientUnits="userSpaceOnUse" x1="-837.5129" y1="828.5378" x2="-865.4911" y2="864.9736" gradientTransform="matrix(-0.48 -0.88 0.88 -0.48 -1004.8 -243.93)">
		<stop  offset="0" style="stop-color:#F6921E"/>
		<stop  offset="1" style="stop-color:#F05A28"/>
	</linearGradient>
	<path style="fill:url(#SVGID_00000128487280320245061770000009425318216158946476_);" d="M133.6,100.2l-6-5.6l-1.2,43
		c0,0,33-8.7,42.7-41.7c4-13.6,3.6-25.6,1.1-35.8c-1.4,3.3-6.7,15.3-14,24.5C147.5,95.4,133.6,100.2,133.6,100.2z"/>
	<path class="st6" d="M152.4,33.6c0.9,1.1,1.7,2.4,2.4,3.6c13.3,24.4-15.5,60.9-20.9,63.1c0,0,13.6-4.9,22.2-15.8
		c7.4-9.2,12.6-21.2,14-24.5c-1.4-5.5-3.4-10.7-6.1-15.7c-3-5.6-6.9-10.7-11.4-15.2c-10-9.5-22-13.5-22-13.5S144.9,23.1,152.4,33.6z
		"/>
	<path class="st7" d="M126.7,137.1l1.1-41.6l5.4,5l0.2,0.2l0.2-0.1c3.5-1.5,16-16.1,21.9-32.8c1.9-5.5,3-10.8,3-15.7
		c0.1-5.6-1.1-10.6-3.5-15.1c-0.7-1.3-1.5-2.5-2.4-3.7c-4.7-6.6-12.2-12-17.1-15.1c4.4,2.1,10.9,5.7,16.7,11.2
		c4.5,4.4,8.3,9.5,11.3,15c6,10.9,11.7,28.7,5,51.2c-2.2,7.4-5.8,14.3-10.7,20.3c-4,4.9-8.8,9.2-14.1,12.7
		C138.6,132.3,132.8,135.1,126.7,137.1 M126.4,137.6c0,0,33-8.7,42.7-41.7c6.3-21.4,1.7-39.1-5.1-51.5c-3-5.6-6.9-10.7-11.4-15.2
		c-10-9.5-22-13.5-22-13.5s14.4,7.4,21.9,17.9c0.9,1.1,1.7,2.4,2.4,3.6c13.3,24.4-15.9,60.7-21.2,62.9l-6-5.6L126.4,137.6z"/>
	<path class="st8" d="M122.2,143.2c-1.4,0.2-2.9,0.3-4.3,0.3c-27.8,0-45.7-43-45.1-48.8c0,0-2.5,14.5,2.9,27.3
		c4.6,10.9,12.6,21.2,14.8,24c5.4,1.4,11,2.1,16.7,2.1c6.4,0,12.7-0.9,18.8-2.8c13.1-4.2,22.4-12.9,22.4-12.9S135,141.6,122.2,143.2
		z"/>

		<linearGradient id="SVGID_00000158725874277587549190000004718082893783488401_" gradientUnits="userSpaceOnUse" x1="53.0697" y1="43.9965" x2="162.1451" y2="37.9894" gradientTransform="matrix(1 0 0 -1 -12.61 151.41)">
		<stop  offset="0" style="stop-color:#2483C5"/>
		<stop  offset="1" style="stop-color:#2483C5"/>
	</linearGradient>

		<path style="fill:none;stroke:url(#SVGID_00000158725874277587549190000004718082893783488401_);stroke-width:0.3776;stroke-miterlimit:10;" d="
		M43.4,70.5c0,0-8.2,33.1,16.2,57.5c15.8,15.8,33.5,20.2,47.6,20.2c6.4,0,12.7-0.9,18.8-2.8c13.1-4.2,22.4-12.9,22.4-12.9
		s-13.4,9.1-26.2,10.7c-1.4,0.2-2.9,0.3-4.3,0.3c-27.8,0-45.7-43-45.1-48.8l7.8-2.6L43.4,70.5z"/>
	<g id="Layer_1-2_00000150797502623982467190000010740499948678756751_">
		<path class="st10" d="M211.1,29.2l-10.3,5.1l-2.7-10.6l17-7.7h8.8v61h-12.8V29.2z"/>
	</g>
	<path class="st10" d="M260.1,15.9h46v11.9h-32.6v12.4h28.7v11.9h-28.7v12.8h33.1v11.9h-46.4V15.9z M336.4,15.9h23.8
		c19.1,0,32.4,13.1,32.4,30.3v0.2c0,17.1-13.2,30.5-32.4,30.5h-23.8V15.9z M360.2,64.7c11,0,18.4-7.4,18.4-18.2v-0.2
		c0-10.8-7.4-18.4-18.4-18.4h-10.4v36.7H360.2z M430.6,28.2h-18.5V15.9h50.5v12.3H444v48.6h-13.4L430.6,28.2z M489.5,15.9h45.9v11.9
		h-32.7v12.4h28.7v11.9h-28.7v12.8h33.1v11.9h-46.4L489.5,15.9z M559.6,46.5v-0.2c0-17.3,13-31.5,31.8-31.5c11.5,0,18.4,3.8,24,9.4
		l-8.5,9.8c-4.7-4.3-9.5-6.9-15.6-6.9c-10.2,0-17.6,8.5-17.6,19v0.2c0,10.4,7.2,19.1,17.7,19.1c7,0,11.2-2.8,16-7.1l8.5,8.6
		c-6.3,6.7-13.2,10.9-25,10.9C572.9,77.8,559.6,64,559.6,46.5L559.6,46.5z M639.7,15.9h13.4V40h24.7V15.9h13.4v60.9h-13.4V52.3
		h-24.7v24.5h-13.4V15.9z"/>
</g>
</svg>
